<?xml version="1.0" encoding="UTF-8" standalone="no"?>
<!DOCTYPE svg PUBLIC "-//W3C//DTD SVG 1.1//EN" "http://www.w3.org/Graphics/SVG/1.1/DTD/svg11.dtd">
<svg width="100%" height="100%" viewBox="0 0 145 145" version="1.1" xmlns="http://www.w3.org/2000/svg" xmlns:xlink="http://www.w3.org/1999/xlink" xml:space="preserve" xmlns:serif="http://www.serif.com/" style="fill-rule:evenodd;clip-rule:evenodd;stroke-linejoin:round;stroke-miterlimit:2;">
    <g transform="matrix(1,0,0,1,-1202,0)">
        <g id="icon_inactive" transform="matrix(1.113519,0,0,0.954434,1201.443285,239.513267)">
            <rect x="0.617" y="-250.948" width="129.405" height="150.974" style="fill:none;"/>
            <g transform="matrix(0.901639,0,0,1.047742,-1204.176023,-2556.999345)">
                <g transform="matrix(4.356542,0,0,4.356542,-1460.467482,-6856.82962)">
                    <path d="M653.077,2105.792L648.894,2112.127L643.573,2112.127L650.018,2102.41C650.736,2103.769 651.791,2104.932 653.077,2105.792ZM652.175,2089.827L644.72,2079.127L650.277,2079.127L652.457,2082.319C652.274,2082.906 652.175,2083.53 652.175,2084.177L652.175,2089.827ZM664.322,2082.123L666.345,2079.127L671.718,2079.127L664.669,2089.383L664.669,2084.177C664.669,2083.458 664.547,2082.766 664.322,2082.123ZM666.767,2102.53L673.276,2112.127L667.589,2112.127L665.268,2108.63L665.268,2108.537L665.206,2108.537L663.5,2105.967C664.871,2105.117 665.998,2103.932 666.767,2102.53Z" style="fill:rgb(35,31,32);"/>
                </g>
                <g id="rect4651" transform="matrix(0.321161,0,0,0.338765,1286.347292,2083.009439)">
                    <path d="M447.298,413.164L447.298,591.646C447.298,627.476 416.568,656.568 378.715,656.568C340.862,656.568 310.132,627.476 310.132,591.646L310.132,413.164C310.132,377.334 340.862,348.242 378.715,348.242C416.568,348.242 447.298,377.334 447.298,413.164ZM363.628,695.525C308.604,688.743 266.597,645.474 266.597,592.983L266.597,542.386L296.703,542.386L296.703,592.983C296.703,634.637 333.42,667.942 378.753,667.942C424.076,667.942 460.792,634.637 460.792,592.983L460.792,542.386L490.897,542.386L490.897,592.983C490.897,645.484 448.875,688.759 393.845,695.529L393.845,741.808L455.427,741.808L455.427,772.578L302.03,772.578L302.03,741.808L363.627,741.808L363.628,695.525Z" style="fill:rgb(234,0,55);"/>
                </g>
            </g>
        </g>
    </g>
</svg>
